HIERARCHY
ROOT root
{
	OFFSET 0.000000 0.000000 0.000000
	CHANNELS 6 Xposition Yposition Zposition Zrotation Yrotation Xrotation
	JOINT lhip
	{
		OFFSET 0.058581 -0.082280 -0.017664
		CHANNELS 3 Zrotation Yrotation Xrotation
		JOINT lknee
		{
			OFFSET 0.043451 -0.386469 0.008037
			CHANNELS 3 Zrotation Yrotation Xrotation
			JOINT lankle
			{
				OFFSET -0.014790 -0.426874 -0.037428
				CHANNELS 3 Zrotation Yrotation Xrotation
				JOINT ltoe
				{
					OFFSET 0.041054 -0.060286 0.122042
					CHANNELS 3 Zrotation Yrotation Xrotation
					End Site
					{
						OFFSET 0.000000 0.000000 0.000000
					}
				}
			}
		}
	}
	JOINT rhip
	{
		OFFSET -0.060310 -0.090513 -0.013543
		CHANNELS 3 Zrotation Yrotation Xrotation
		JOINT rknee
		{
			OFFSET -0.043257 -0.383688 -0.004843
			CHANNELS 3 Zrotation Yrotation Xrotation
			JOINT rankle
			{
				OFFSET 0.019056 -0.420046 -0.034562
				CHANNELS 3 Zrotation Yrotation Xrotation
				JOINT rtoe
				{
					OFFSET -0.034840 -0.062106 0.130323
					CHANNELS 3 Zrotation Yrotation Xrotation
					End Site
					{
						OFFSET 0.000000 0.000000 0.000000
					}
				}
			}
		}
	}
	JOINT lowerback
	{
		OFFSET 0.004439 0.124404 -0.038385
		CHANNELS 3 Zrotation Yrotation Xrotation
		JOINT upperback
		{
			OFFSET 0.004488 0.137956 0.026820
			CHANNELS 3 Zrotation Yrotation Xrotation
			JOINT chest
			{
				OFFSET -0.002265 0.056032 0.002855
				CHANNELS 3 Zrotation Yrotation Xrotation
				JOINT lowerneck
				{
					OFFSET -0.013390 0.211636 -0.033468
					CHANNELS 3 Zrotation Yrotation Xrotation
					JOINT upperneck
					{
						OFFSET 0.010113 0.088937 0.050410
						CHANNELS 3 Zrotation Yrotation Xrotation
						End Site
						{
							OFFSET 0.000000 0.000000 0.000000
						}
					}
				}
				JOINT lclavicle
				{
					OFFSET 0.071702 0.114000 -0.018898
					CHANNELS 3 Zrotation Yrotation Xrotation
					JOINT lshoulder
					{
						OFFSET 0.122921 0.045205 -0.019046
						CHANNELS 3 Zrotation Yrotation Xrotation
						JOINT lelbow
						{
							OFFSET 0.255332 -0.015649 -0.022946
							CHANNELS 3 Zrotation Yrotation Xrotation
							JOINT lwrist
							{
								OFFSET 0.265709 0.012698 -0.007375
								CHANNELS 3 Zrotation Yrotation Xrotation
								End Site
								{
									OFFSET 0.000000 0.000000 0.000000
								}
							}
						}
					}
				}
				JOINT rclavicle
				{
					OFFSET -0.082954 0.112472 -0.023707
					CHANNELS 3 Zrotation Yrotation Xrotation
					JOINT rshoulder
					{
						OFFSET -0.113228 0.046853 -0.008472
						CHANNELS 3 Zrotation Yrotation Xrotation
						JOINT relbow
						{
							OFFSET -0.260127 -0.014369 -0.031269
							CHANNELS 3 Zrotation Yrotation Xrotation
							JOINT rwrist
							{
								OFFSET -0.269108 0.006794 -0.006027
								CHANNELS 3 Zrotation Yrotation Xrotation
								End Site
								{
									OFFSET 0.000000 0.000000 0.000000
								}
							}
						}
					}
				}
			}
		}
	}
}
MOTION
Frames: 18
Frame Time: 0.033333
1.766849 0.657918 0.986289 -88.793402 2.528640 83.571828 0.985366 -1.459140 5.375943 -2.649919 -14.223128 8.347031 5.105255 10.721336 -19.962032 0.000000 -0.000000 0.000000 3.639590 -3.245159 4.315906 3.428210 2.578069 9.723723 1.769469 -5.597600 -14.985976 0.000000 -0.000000 0.000000 -1.198261 2.816862 4.486600 1.603916 -1.434952 2.675508 1.221423 -1.837313 5.433773 3.930894 5.026811 -1.262179 0.894153 0.568190 7.447262 -25.555370 6.527929 3.078979 -63.189706 -3.123557 7.005228 11.154361 -18.267837 6.167872 -4.226661 -0.343232 -6.978826 23.716502 -4.416224 1.886049 62.411883 1.293881 10.406064 -15.523488 21.769113 -3.318520 6.099397 1.128630 -8.486592 
1.765411 0.657046 0.986277 -88.440996 2.455777 83.057111 0.828814 -1.388872 6.063474 -2.562886 -14.516059 8.204080 5.126900 10.636664 -20.002614 0.000000 -0.000000 0.000000 3.559560 -3.022922 5.206051 3.333052 2.205444 9.402018 1.821306 -5.722447 -15.071349 0.000000 -0.000000 0.000000 -1.404185 2.806150 4.851058 1.616274 -1.438039 2.753792 1.358008 -1.732236 5.287619 3.960692 4.349777 -0.573258 0.536154 0.319224 7.683732 -25.414989 6.582279 3.519638 -63.448527 -3.160561 6.890372 11.224661 -18.544841 6.250689 -4.176915 -0.365061 -7.311569 23.445108 -4.379203 2.153828 62.715944 1.049326 10.121628 -15.673990 21.430437 -3.302117 6.112958 1.020577 -8.579165 
1.764983 0.656247 0.986145 -88.136125 2.460363 83.064738 0.809676 -1.386826 5.978637 -2.614715 -14.728921 8.280601 5.150808 10.564056 -19.992222 0.000000 -0.000000 0.000000 3.456922 -3.137392 5.207386 3.395287 1.997295 9.515143 1.835067 -5.701738 -15.129000 0.000000 -0.000000 0.000000 -1.392795 2.745223 4.796714 1.551946 -1.458400 2.725732 1.318707 -1.707530 5.264524 3.794834 4.357414 -0.163920 0.734930 0.297560 7.652323 -25.363859 6.711132 3.584469 -63.579709 -3.144510 6.882415 11.259097 -18.964893 6.170573 -4.087600 -0.469657 -7.644749 23.444480 -4.461880 2.303072 62.888755 1.078871 9.924618 -15.733222 21.096723 -3.335817 6.098109 0.793547 -8.641516 
1.764655 0.655532 0.986014 -87.815827 2.539809 83.109943 0.865943 -1.644582 5.936978 -2.705838 -14.819943 8.273019 5.263310 10.591187 -19.987098 0.000000 -0.000000 0.000000 3.496925 -3.042128 5.266879 3.445964 1.814675 9.428495 1.828483 -5.926596 -15.161278 0.000000 -0.000000 0.000000 -1.411402 2.815589 4.696810 1.603816 -1.385485 2.817690 1.271168 -1.730874 5.210315 4.087244 4.049764 -0.581227 0.989092 -0.099656 7.704973 -25.409591 6.678902 3.493269 -63.664120 -3.497104 7.012875 11.349856 -19.247943 5.785536 -4.055838 -0.595580 -7.953703 23.355748 -4.352971 2.218170 63.391790 0.841336 9.943271 -16.138824 20.344237 -3.551446 6.305870 0.146098 -8.842400 
1.764602 0.655182 0.985963 -87.609435 2.645797 83.209030 0.995019 -1.721168 5.771423 -2.800230 -14.891436 8.363381 5.299716 10.558152 -20.047197 0.000000 -0.000000 0.000000 3.586045 -3.089373 5.216962 3.474602 1.771761 9.325653 1.826542 -6.010535 -15.062329 0.000000 -0.000000 0.000000 -1.409839 2.798377 4.517731 1.666504 -1.413772 2.877426 1.321265 -1.654427 5.202616 4.179053 3.616724 -0.561790 0.975960 -0.494153 7.668780 -25.490822 6.583219 3.382838 -63.767208 -3.766487 7.122963 11.370195 -19.391978 5.622250 -3.814708 -0.456625 -8.013156 23.350980 -4.206782 2.177648 63.502355 0.879429 9.939734 -16.193519 19.907588 -3.609777 6.360757 -0.259021 -8.776649 
1.764199 0.654188 0.985744 -87.523296 2.629733 83.149596 0.845191 -1.822198 5.909819 -2.656839 -14.922356 8.260375 5.261449 10.529805 -20.057375 0.000000 -0.000000 0.000000 3.540755 -3.091977 5.361775 3.388792 1.702575 9.280098 1.895596 -6.031353 -15.116379 0.000000 -0.000000 0.000000 -1.467114 2.909263 4.465241 1.697957 -1.363058 2.961037 1.366920 -1.666678 5.251653 4.075594 3.912240 -0.807687 0.880628 -0.333716 7.606541 -25.572178 6.358018 3.249906 -63.787476 -3.990356 7.356964 11.355980 -20.041001 5.447555 -3.432790 -0.707906 -8.010039 23.558630 -4.121005 2.103601 63.211347 1.126841 9.962782 -16.040930 19.756574 -4.032206 6.157554 0.040034 -8.908637 
1.763877 0.653392 0.985778 -87.462405 2.670948 83.179344 0.826141 -1.929711 5.946934 -2.631940 -14.918874 8.179036 5.118827 10.525124 -20.009540 0.000000 -0.000000 0.000000 3.555709 -3.144165 5.462875 3.377167 1.674685 9.164547 1.923379 -6.133684 -15.051612 0.000000 -0.000000 0.000000 -1.360902 2.845226 4.331863 1.631534 -1.325367 2.967021 1.337895 -1.533640 5.409399 4.181943 3.842643 -1.371388 1.125162 -0.681480 7.416821 -25.391880 6.319104 2.747672 -63.897708 -4.275246 7.630966 11.033218 -20.519185 5.654784 -3.583357 -1.168233 -8.302082 23.685995 -4.178493 1.816913 63.061522 1.250513 10.083289 -15.838790 19.739294 -3.920068 6.019853 0.126705 -8.726509 
1.763654 0.652548 0.985844 -87.464124 2.689838 83.133880 0.805659 -1.894076 5.993263 -2.651925 -14.927487 8.248663 5.152534 10.470518 -20.036868 0.000000 -0.000000 0.000000 3.522035 -3.233191 5.509793 3.326084 1.634064 9.212974 1.952219 -6.008621 -15.073794 0.000000 -0.000000 0.000000 -1.408360 2.898827 4.331438 1.665804 -1.346971 3.002516 1.417298 -1.501342 5.378629 4.257123 3.568917 -1.275048 1.227514 -0.824795 7.140875 -25.372574 6.073830 2.606709 -64.100875 -4.603017 7.832309 11.083132 -21.201039 5.597190 -3.482259 -1.355680 -8.483141 23.474400 -3.924426 1.854997 63.137347 1.303673 10.063678 -15.621985 19.997038 -3.955842 6.244213 0.031950 -8.976901 
1.763442 0.651905 0.985677 -87.496396 2.747480 83.051898 0.920308 -1.720889 6.128340 -2.686528 -14.829498 8.105806 5.162777 10.252083 -20.039581 0.000000 -0.000000 0.000000 3.464936 -3.657752 5.559979 3.292488 1.667370 9.326036 1.932452 -5.580701 -15.168154 0.000000 -0.000000 0.000000 -1.426862 2.985309 4.481933 1.672106 -1.395736 2.924177 1.512961 -1.439393 4.922884 3.732489 3.986949 -0.293953 1.085356 -0.114714 7.630956 -25.097417 5.706624 3.120709 -64.481993 -4.837992 7.795759 11.170231 -22.218024 5.545391 -3.072066 -1.283877 -8.882113 23.441212 -3.632419 2.636717 63.027412 1.716469 9.716333 -15.493679 20.621204 -4.108197 6.132596 0.694713 -9.226634 
1.762945 0.651458 0.985903 -87.282449 2.864153 83.072600 1.016822 -1.967857 6.214347 -2.693569 -14.895604 7.954717 5.119661 10.303220 -20.066799 0.000000 -0.000000 0.000000 3.717918 -3.451487 5.762540 3.113227 1.660316 9.000642 2.010097 -6.004195 -15.090151 0.000000 -0.000000 0.000000 -1.426432 2.919229 4.357362 1.750115 -1.415584 2.986668 1.559348 -1.548450 5.137309 4.196823 3.910926 -1.346437 1.284691 -0.434140 7.595446 -25.200892 5.574573 2.740269 -64.418944 -5.312859 8.115043 11.077014 -23.317126 5.596345 -2.927932 -1.346559 -8.926946 23.304794 -3.501398 2.065706 63.338319 1.671509 10.179556 -15.856086 20.662479 -3.741023 6.251908 0.131956 -8.792877 
1.762504 0.650833 0.986093 -87.170289 2.896471 82.893398 0.978308 -1.935520 6.471337 -2.589738 -14.971022 7.882874 5.059967 10.099816 -20.117942 0.000000 -0.000000 0.000000 3.758629 -3.384310 6.057646 3.009369 1.451349 8.890541 1.974384 -6.097907 -15.115140 0.000000 -0.000000 0.000000 -1.471395 2.779068 4.539559 1.786958 -1.491824 3.064388 1.640549 -1.513621 4.920188 4.114171 3.877928 -1.229176 1.064764 -0.307588 7.539536 -25.255931 5.261605 2.989040 -64.424305 -5.508789 8.229223 11.217840 -24.445653 5.390818 -2.778998 -1.474234 -9.247330 23.470030 -3.200109 2.198893 62.998493 1.845871 10.099753 -15.663299 21.390325 -4.243502 6.163883 0.654581 -9.170560 
1.762507 0.650075 0.985957 -87.112850 2.918464 82.939494 0.923665 -2.064284 6.399456 -2.517584 -14.910762 7.872492 5.101456 10.018564 -20.068593 0.000000 -0.000000 0.000000 3.680832 -3.626772 5.995022 3.019438 1.442248 8.946237 1.931993 -5.960397 -15.252137 0.000000 -0.000000 0.000000 -1.379681 2.829362 4.526926 1.828369 -1.528803 2.972423 1.608268 -1.636561 4.860461 4.192900 3.618592 -1.097497 0.900574 -0.419488 7.683719 -25.214113 5.095611 2.929607 -64.549680 -5.807833 8.403736 11.348007 -25.139215 5.430265 -2.843109 -1.547000 -9.277325 23.260505 -3.119217 2.165644 63.130111 1.844479 10.137611 -15.771647 21.758900 -4.207599 6.254217 0.598322 -9.249824 
1.762388 0.649541 0.985883 -87.062948 3.039881 83.018407 1.098791 -2.042117 6.197696 -2.694768 -14.814942 8.093630 5.171165 9.868520 -20.205546 0.000000 -0.000000 0.000000 3.706150 -4.079561 5.930182 3.019906 1.651014 8.921664 1.985557 -5.741317 -15.197329 0.000000 -0.000000 0.000000 -1.278550 2.850482 4.289253 1.823445 -1.615109 3.063693 1.639476 -1.574147 4.901036 3.997583 4.141444 -1.106142 1.018967 0.052107 7.883469 -25.104278 4.708796 2.940265 -64.687544 -6.090378 8.547978 11.483370 -25.752822 5.407676 -2.774520 -1.704463 -9.549597 23.285309 -2.979028 2.219594 63.041130 2.113199 10.125239 -15.742702 22.082899 -4.159923 6.316964 0.459889 -9.363335 
1.762814 0.649112 0.985814 -87.323607 2.973145 83.125315 0.970262 -2.110652 6.161617 -2.633385 -14.644239 7.920411 5.294594 10.056614 -20.135849 0.000000 -0.000000 0.000000 3.621967 -3.762980 5.646536 3.046367 1.500313 9.151434 1.988210 -5.670665 -15.257907 0.000000 -0.000000 0.000000 -1.339082 2.922223 4.289907 1.795194 -1.518065 2.957451 1.660116 -1.453779 4.813296 3.984702 4.338527 -1.173140 1.066619 0.225394 7.939682 -24.967490 4.533272 2.844834 -64.783421 -6.340605 8.684053 11.521589 -26.156170 5.268291 -2.712142 -1.717084 -9.555973 23.176158 -2.796067 2.276772 63.186662 2.115210 10.281303 -15.779151 22.352206 -4.136712 6.663937 0.368596 -9.580177 
1.763144 0.648690 0.985910 -87.337338 2.923466 83.175943 0.876590 -2.182660 6.048574 -2.686423 -14.663805 8.026324 5.296509 10.109264 -20.121859 0.000000 -0.000000 0.000000 3.556453 -3.596085 5.504808 3.045087 1.348427 9.292692 2.019520 -5.661860 -15.257883 0.000000 -0.000000 0.000000 -1.425377 2.937046 4.327375 1.803176 -1.498469 2.906005 1.709514 -1.454308 4.729010 3.980429 4.286182 -1.164830 1.129000 0.098887 7.981807 -24.912286 4.434961 2.783862 -64.700487 -6.492031 8.755120 11.441310 -26.673555 5.146369 -2.684669 -1.619235 -9.496599 23.267109 -2.705865 2.141315 63.056526 2.145127 10.348513 -15.808132 22.707276 -4.179087 6.719201 0.297091 -9.449397 
1.764095 0.647989 0.985586 -87.639925 2.798955 83.456850 0.689942 -2.183106 5.672657 -2.706278 -14.470006 8.073802 5.438535 10.259041 -20.044076 0.000000 -0.000000 0.000000 3.318661 -3.265388 4.929539 3.179405 1.201659 9.660650 2.074190 -5.584742 -15.301781 0.000000 -0.000000 0.000000 -1.467274 3.038492 4.104339 1.781217 -1.344223 2.830006 1.637103 -1.469582 4.783379 3.909176 4.651917 -1.134316 1.213969 0.402644 7.939153 -24.747626 4.365488 2.665988 -64.818907 -6.602595 8.886334 11.509569 -26.908557 5.101147 -2.819844 -1.679922 -9.698880 23.207603 -2.712838 2.206086 63.131385 2.396202 10.532346 -15.901830 22.865427 -4.125637 6.789304 0.471894 -9.531250 
1.763310 0.647618 0.985630 -87.612987 2.815008 83.297462 0.666557 -2.173147 5.976548 -2.654094 -14.526853 7.954947 5.420283 10.247559 -20.069075 0.000000 -0.000000 0.000000 3.319433 -3.256943 5.287833 3.161886 1.245300 9.438085 2.070164 -5.612311 -15.277870 0.000000 -0.000000 0.000000 -1.489313 3.010428 4.092203 1.814375 -1.416514 2.954778 1.667314 -1.440828 4.768161 3.999150 4.206231 -1.060058 1.014425 0.007422 8.158091 -24.717816 4.359249 2.664657 -64.897681 -6.697636 8.927974 11.666444 -27.025479 5.151188 -2.584501 -1.893042 -9.734787 23.118258 -2.581235 2.280019 63.202582 2.468620 10.550469 -15.930981 22.949614 -4.089477 6.667333 0.533902 -9.512336 
1.763995 0.647381 0.985510 -87.738408 2.822818 83.395940 0.639574 -2.306613 5.786720 -2.677586 -14.378246 8.061567 5.451800 10.362690 -20.103689 0.000000 -0.000000 0.000000 3.338324 -3.069979 4.991113 3.175221 1.190744 9.670235 2.064513 -5.656465 -15.327020 0.000000 -0.000000 0.000000 -1.491659 3.015547 4.152082 1.829627 -1.379241 2.868959 1.672087 -1.432915 4.764960 3.999555 4.321397 -1.187885 0.926165 0.067809 8.250091 -24.749810 4.375608 2.627964 -64.869015 -6.736836 8.939865 11.690455 -27.032438 5.030321 -2.548931 -1.875831 -9.700850 23.124894 -2.569124 2.294556 63.230913 2.621120 10.656883 -15.944037 23.051277 -4.142932 6.656361 0.491378 -9.632439 
